<?xml version="1.0" encoding="UTF-8"?>
<svg version="1.1" xmlns="http://www.w3.org/2000/svg" width="99" height="100">
<path d="M0 0 C32.67 0 65.34 0 99 0 C99 33 99 66 99 100 C66.33 100 33.66 100 0 100 C0 67 0 34 0 0 Z " fill="#22282F" transform="translate(0,0)"/>
<path d="M0 0 C3.08032227 1.44287109 3.08032227 1.44287109 6.31640625 3.2734375 C7.18482399 3.76005356 7.18482399 3.76005356 8.07078552 4.25650024 C9.90620002 5.2876744 11.73428163 6.33113149 13.5625 7.375 C14.79316544 8.06851522 16.02428169 8.7612311 17.25585938 9.453125 C20.51245296 11.28739154 23.76209931 13.13285614 27 15 C27.93432861 15.50998535 28.86865723 16.0199707 29.83129883 16.54541016 C32 18 32 18 32.8828125 20.8125 C31.6627801 25.21757273 29.47702945 26.16732835 25.6484375 28.44018555 C24.73320313 28.95492432 23.81796875 29.46966309 22.875 30 C20.95454268 31.12949548 19.03531237 32.2610793 17.1171875 33.39453125 C16.11526367 33.97928223 15.11333984 34.5640332 14.08105469 35.16650391 C8.01428358 38.77676151 2.11951332 42.6625623 -3.80126953 46.50585938 C-4.67122559 47.06466797 -5.54118164 47.62347656 -6.4375 48.19921875 C-7.19933594 48.69252686 -7.96117188 49.18583496 -8.74609375 49.6940918 C-11.09785668 51.05669794 -13.4558539 52.05239532 -16 53 C-11.53695836 57.73797063 -11.53695836 57.73797063 -6 61 C0.93285955 60.90147099 5.57526756 57.52155193 11.25 53.8125 C13.11191863 52.62546413 14.97518816 51.44054438 16.83984375 50.2578125 C18.17184814 49.40944824 18.17184814 49.40944824 19.53076172 48.54394531 C23.91007902 45.80568126 28.42155497 43.39172502 33 41 C33 46.94 33 52.88 33 59 C31.22753906 59.95261719 29.45507812 60.90523437 27.62890625 61.88671875 C25.88124247 62.82669728 24.1335812 63.76668047 22.38598633 64.70678711 C21.18656123 65.35186552 19.98702019 65.99672839 18.78735352 66.64135742 C17.04672029 67.57672066 15.30656134 68.51296629 13.56640625 69.44921875 C11.87862061 70.34906494 11.87862061 70.34906494 10.15673828 71.26708984 C8.19534205 72.34380991 6.255621 73.46240268 4.35498047 74.64306641 C3.58686035 75.1179248 2.81874023 75.5927832 2.02734375 76.08203125 C1.384021 76.50331299 0.74069824 76.92459473 0.07788086 77.35864258 C-3.86158183 78.5745947 -7.17898223 76.41547999 -10.68139648 74.64306641 C-11.56899658 74.13437012 -12.45659668 73.62567383 -13.37109375 73.1015625 C-14.35787109 72.53953125 -15.34464844 71.9775 -16.36132812 71.3984375 C-17.37646484 70.81320313 -18.39160156 70.22796875 -19.4375 69.625 C-20.44876953 69.0475 -21.46003906 68.47 -22.50195312 67.875 C-24.39905872 66.79093966 -26.29496316 65.70477234 -28.18920898 64.61572266 C-31.45607849 62.73783311 -34.72780622 60.86859554 -38 59 C-38.19803736 53.25272727 -38.34305146 47.50744577 -38.43945312 41.75756836 C-38.4796409 39.80278937 -38.53420412 37.84825023 -38.60351562 35.89428711 C-38.7007876 33.08126751 -38.74596862 30.27142774 -38.78125 27.45703125 C-38.84318542 26.15050346 -38.84318542 26.15050346 -38.90637207 24.81758118 C-38.90821717 22.31223093 -38.8114528 20.37273133 -38 18 C-35.62025285 15.70604123 -32.96621004 14.40782235 -30 13 C-29.00468262 12.38334473 -28.00936523 11.76668945 -26.98388672 11.13134766 C-23.95797063 9.2782836 -20.91758563 7.45055138 -17.875 5.625 C-16.81667969 4.97144531 -15.75835937 4.31789063 -14.66796875 3.64453125 C-13.64058594 3.03222656 -12.61320312 2.41992188 -11.5546875 1.7890625 C-10.63155762 1.22912598 -9.70842773 0.66918945 -8.75732422 0.09228516 C-5.27391672 -1.2876303 -3.58202089 -1.03302693 0 0 Z " fill="#F9E800" transform="translate(52,12)"/>
<path d="M0 0 C3.25 2.25 3.25 2.25 6 5 C6.40966797 7.50415039 6.40966797 7.50415039 6 10 C4.41455078 11.48217773 4.41455078 11.48217773 2.1953125 12.68359375 C1.38827881 13.13371826 0.58124512 13.58384277 -0.25024414 14.04760742 C-1.11641357 14.50627197 -1.98258301 14.96493652 -2.875 15.4375 C-4.62143206 16.40042834 -6.36752887 17.36396497 -8.11328125 18.328125 C-8.95713379 18.78638672 -9.80098633 19.24464844 -10.67041016 19.71679688 C-14.28743374 21.70915445 -17.78274196 23.88905694 -21.28515625 26.07421875 C-23 27 -23 27 -25 27 C-26.34448137 21.85682525 -27.30537437 16.93679619 -25 12 C-19.85479065 6.83969099 -7.57974928 -3.12268452 0 0 Z " fill="#151B1E" transform="translate(52,26)"/>
</svg>
