<?xml version="1.0" encoding="UTF-8"?>
<!DOCTYPE svg PUBLIC "-//W3C//DTD SVG 1.1//EN" "http://www.w3.org/Graphics/SVG/1.1/DTD/svg11.dtd">
<!-- Creator: CorelDRAW (OEM Version) -->
<svg xmlns="http://www.w3.org/2000/svg" xml:space="preserve" width="2.15057in" height="0.75526in" version="1.1" style="shape-rendering:geometricPrecision; text-rendering:geometricPrecision; image-rendering:optimizeQuality; fill-rule:evenodd; clip-rule:evenodd"
viewBox="0 0 2150.57 755.26"
 xmlns:xlink="http://www.w3.org/1999/xlink"
 xmlns:xodm="http://www.corel.com/coreldraw/odm/2003">
 <defs>
  <style type="text/css">
   <![CDATA[
    .str0 {stroke:#FEFEFE;stroke-width:6.94;stroke-miterlimit:2.61313}
    .fil0 {fill:#2B2A29}
    .fil3 {fill:#FFED00}
    .fil1 {fill:#10171F}
    .fil2 {fill:#FEFEFE;fill-rule:nonzero}
   ]]>
  </style>
 </defs>
 <g id="Layer_x0020_1">
  <metadata id="CorelCorpID_0Corel-Layer"/>
  <rect class="fil0" x="-2.81" y="0.2" width="2150.58" height="755.26"/>
  <polygon class="fil1 str0" points="90.02,119.88 602.02,119.88 602.02,631.87 90.02,631.87 "/>
  <path class="fil2" d="M1379.68 261.52l0 199.83c0,13.82 -3.3,24.28 -9.86,31.4 -6.57,7.06 -14.94,10.63 -25.06,10.63 -10.22,0 -18.43,-3.63 -24.72,-10.93 -6.32,-7.25 -9.51,-17.61 -9.51,-31.09l0 -197.8c0,-13.71 3.19,-23.98 9.51,-30.93 6.29,-6.92 14.5,-10.35 24.72,-10.35 10.11,0 18.49,3.43 25.06,10.35 6.57,6.95 9.86,16.62 9.86,28.9zm-34.23 -71.43c-9.61,0 -17.8,-2.93 -24.64,-8.87 -6.84,-5.91 -10.28,-14.26 -10.28,-25.02 0,-9.81 3.54,-17.89 10.52,-24.2 7.01,-6.26 15.14,-9.51 24.4,-9.51 8.98,0 16.92,2.86 23.85,8.66 6.92,5.74 10.38,14.09 10.38,25.06 0,10.63 -3.38,18.92 -10.11,24.91 -6.76,5.99 -14.78,8.98 -24.12,8.98z"/>
  <path class="fil2" d="M1022.16 461.35l0 -299.86c0,-13.81 3.1,-24.28 9.23,-31.39 6.16,-7.09 14.45,-10.63 25,-10.63 10.44,0 18.82,3.54 25.3,10.58 6.4,7 9.61,17.47 9.61,31.45l0 299.86c0,13.98 -3.3,24.45 -9.78,31.45 -6.48,7 -14.86,10.57 -25.14,10.57 -10.22,0 -18.43,-3.63 -24.72,-10.93 -6.31,-7.25 -9.5,-17.61 -9.5,-31.09z"/>
  <path class="fil2" d="M1638.57 463.88l0 -6.84c-9.23,10.63 -18.41,19.29 -27.47,25.93 -8.98,6.65 -18.84,11.76 -29.39,15.19 -10.55,3.46 -22.03,5.22 -34.59,5.22 -16.48,0 -31.78,-3.57 -45.88,-10.57 -14.09,-7 -26.37,-16.95 -36.65,-29.97 -10.3,-12.96 -18.07,-28.3 -23.43,-45.82 -5.28,-17.56 -7.97,-36.57 -7.97,-56.98 0,-43.19 10.55,-76.92 31.65,-101.01 21.1,-24.12 48.93,-36.23 83.32,-36.23 19.97,0 36.76,3.46 50.41,10.3 13.65,6.81 27.06,17.28 40,31.54l0 -102.11c0,-14.15 2.86,-24.89 8.49,-32.11 5.72,-7.28 13.74,-10.93 24.2,-10.93 10.47,0 18.49,3.38 24.2,10.03 5.61,6.65 8.46,16.54 8.46,29.5l0 304.89c0,13.13 -3.02,23.07 -9.06,29.61 -6.15,6.59 -14.01,9.89 -23.6,9.89 -9.43,0 -17.28,-3.46 -23.43,-10.3 -6.13,-6.81 -9.26,-16.54 -9.26,-29.2zm-135.96 -101.56c0,18.7 2.94,34.72 8.74,47.88 5.8,13.13 13.82,23.08 23.93,29.72 10.13,6.65 21.18,10 33.21,10 12.09,0 23.24,-3.16 33.27,-9.48 10.03,-6.32 18.07,-15.99 24.04,-29.12 5.96,-13.07 8.98,-29.39 8.98,-49.01 0,-18.35 -3.02,-34.23 -8.98,-47.47 -5.96,-13.24 -14.09,-23.35 -24.29,-30.36 -10.22,-7 -21.45,-10.52 -33.54,-10.52 -12.72,0 -24.04,3.52 -33.98,10.69 -9.94,7.17 -17.64,17.59 -23.16,30.94 -5.44,13.4 -8.21,29.01 -8.21,46.73z"/>
  <path class="fil2" d="M914.91 371.87l-135.19 0c0.19,15.74 3.38,29.56 9.5,41.62 6.15,12.01 14.37,20.99 24.56,27.06 10.19,6.1 21.54,9.15 33.79,9.15 8.3,0 15.82,-0.96 22.67,-2.94 6.81,-1.92 13.49,-4.94 19.86,-9.09 6.48,-4.15 12.36,-8.55 17.72,-13.32 5.46,-4.73 12.47,-11.13 21.1,-19.28 3.54,-3 8.57,-4.54 15.13,-4.54 7.09,0 12.89,1.95 17.28,5.88 4.31,3.85 6.57,9.29 6.57,16.4 0,6.21 -2.5,13.55 -7.33,21.98 -4.94,8.3 -12.28,16.29 -22.22,23.98 -9.86,7.72 -22.2,14.09 -37.17,19.15 -14.94,5.06 -32.14,7.58 -51.51,7.58 -44.42,0 -79.01,-12.64 -103.65,-37.94 -24.64,-25.36 -36.98,-59.75 -36.98,-103.13 0,-20.41 3.02,-39.42 9.15,-56.87 6.05,-17.44 14.95,-32.42 26.54,-44.97 11.68,-12.44 26.02,-22.01 43.13,-28.68 17.04,-6.65 35.96,-10.06 56.7,-10.06 27.06,0 50.22,5.74 69.51,17.11 19.37,11.46 33.79,26.13 43.48,44.17 9.59,18.11 14.43,36.51 14.43,55.27 0,17.33 -5,28.6 -14.94,33.79 -9.94,5.11 -24.04,7.67 -42.11,7.67zm-135.19 -39.23l125.35 0c-1.65,-23.6 -8.05,-41.32 -19.12,-53 -11.04,-11.76 -25.57,-17.63 -43.65,-17.63 -17.28,0 -31.37,5.99 -42.41,17.8 -11.07,11.95 -17.83,29.56 -20.17,52.83z"/>
  <path class="fil2" d="M1239.11 261.52l0 199.83c0,13.82 -3.3,24.28 -9.86,31.4 -6.57,7.06 -14.94,10.63 -25.06,10.63 -10.22,0 -18.43,-3.63 -24.72,-10.93 -6.32,-7.25 -9.51,-17.61 -9.51,-31.09l0 -197.8c0,-13.71 3.19,-23.98 9.51,-30.93 6.29,-6.92 14.5,-10.35 24.72,-10.35 10.11,0 18.49,3.43 25.06,10.35 6.57,6.95 9.86,16.62 9.86,28.9zm-34.23 -71.43c-9.61,0 -17.8,-2.93 -24.64,-8.87 -6.84,-5.91 -10.28,-14.26 -10.28,-25.02 0,-9.81 3.55,-17.89 10.52,-24.2 7.01,-6.26 15.14,-9.51 24.39,-9.51 8.99,0 16.93,2.86 23.85,8.66 6.92,5.74 10.38,14.09 10.38,25.06 0,10.63 -3.38,18.92 -10.11,24.91 -6.76,5.99 -14.78,8.98 -24.12,8.98z"/>
  <path class="fil2" d="M1966.28 371.87l-135.19 0c0.19,15.74 3.38,29.56 9.5,41.62 6.15,12.01 14.37,20.99 24.56,27.06 10.19,6.1 21.54,9.15 33.79,9.15 8.3,0 15.83,-0.96 22.67,-2.94 6.81,-1.92 13.49,-4.94 19.86,-9.09 6.49,-4.15 12.37,-8.55 17.72,-13.32 5.46,-4.73 12.47,-11.13 21.09,-19.28 3.54,-3 8.57,-4.54 15.14,-4.54 7.09,0 12.89,1.95 17.28,5.88 4.31,3.85 6.57,9.29 6.57,16.4 0,6.21 -2.5,13.55 -7.33,21.98 -4.94,8.3 -12.28,16.29 -22.22,23.98 -9.86,7.72 -22.2,14.09 -37.17,19.15 -14.94,5.06 -32.14,7.58 -51.51,7.58 -44.42,0 -79.01,-12.64 -103.65,-37.94 -24.64,-25.36 -36.98,-59.75 -36.98,-103.13 0,-20.41 3.02,-39.42 9.15,-56.87 6.05,-17.44 14.95,-32.42 26.54,-44.97 11.68,-12.44 26.02,-22.01 43.13,-28.68 17.03,-6.65 35.96,-10.06 56.7,-10.06 27.06,0 50.22,5.74 69.51,17.11 19.37,11.46 33.79,26.13 43.48,44.17 9.59,18.11 14.43,36.51 14.43,55.27 0,17.33 -5,28.6 -14.95,33.79 -9.94,5.11 -24.04,7.67 -42.11,7.67zm-135.19 -39.23l125.35 0c-1.65,-23.6 -8.05,-41.32 -19.12,-53 -11.04,-11.76 -25.57,-17.63 -43.65,-17.63 -17.28,0 -31.38,5.99 -42.42,17.8 -11.07,11.95 -17.83,29.56 -20.17,52.83z"/>
  <path class="fil2" d="M772.24 641.76c16.13,0 27.17,-10.54 28.19,-25.64 0.13,-2.67 -2.28,-5.33 -5.84,-5.33 -3.55,0 -5.71,3.05 -5.83,5.72 -0.76,8.63 -7.62,14.09 -16.51,13.96 -11.55,0 -17.9,-8.63 -17.9,-23.87l0 -21.96c0,-15.23 6.35,-23.99 17.9,-23.99 8.51,-0.13 15.62,5.71 16.51,14.98 0,3.17 2.15,5.71 5.83,5.71 3.68,0 5.84,-2.66 5.71,-5.33 -0.89,-15.62 -11.42,-26.66 -28.06,-26.66 -18.79,0 -29.7,13.96 -29.7,36.18l0 20.06c0,22.34 10.92,36.18 29.7,36.18zm47.4 0c3.3,0 5.96,-2.67 5.96,-5.84l0 -33.77c0,-8 5.96,-16.13 14.09,-16.13 7.61,0 12.06,5.46 12.06,15.11l0 34.78c0,3.17 2.67,5.84 5.84,5.84 3.3,0 5.97,-2.67 5.97,-5.84l0 -37.96c0,-14.22 -7.37,-23.11 -19.17,-23.11 -8.63,0 -14.98,4.7 -18.41,10.8l-0.38 0 0 -30.47c0,-3.17 -2.67,-5.84 -5.96,-5.84 -3.17,0 -5.84,2.67 -5.84,5.84l0 80.74c0,3.17 2.67,5.84 5.84,5.84zm78.5 0.13c6.98,0 13.46,-3.3 17.27,-8.76l0.26 0 0.25 4.83c0.64,1.65 2.67,3.81 5.71,3.81 3.18,0 5.84,-2.67 5.84,-5.84l0 -55.22c0,-3.18 -2.67,-5.84 -5.84,-5.84 -2.92,0 -4.95,1.91 -5.71,3.68l-0.25 4.95 -0.38 0c-3.69,-5.46 -10.28,-8.76 -17.14,-8.76 -12.57,0 -22.72,10.67 -22.72,23.74l0 19.68c0,13.2 10.03,23.74 22.72,23.74zm3.05 -10.02c-8.26,0 -14.6,-6.86 -14.6,-15.62l0 -16c0,-8.63 6.35,-15.48 14.6,-15.48 8,0 14.47,7.11 14.47,15.87l0 15.23c0,8.89 -6.48,16 -14.47,16zm47.4 9.9c3.17,0 5.83,-2.67 5.83,-5.84l0 -28.31c0,-9.91 6.98,-19.43 20.19,-21.71 2.54,-0.5 4.44,-2.79 4.44,-5.46 0,-3.17 -2.67,-5.84 -5.84,-5.71 -8,0.89 -14.22,5.46 -18.28,11.8l-0.51 0 0 -6.72c-0.63,-2.8 -3.04,-5.08 -5.96,-5.08 -3.18,0 -5.84,2.67 -5.84,5.97l0 55.22c0,3.17 2.67,5.84 5.97,5.84zm62.12 25.26c16.63,0 26.66,-9.39 26.66,-23.74l0 -62.58c0,-3.18 -2.67,-5.84 -5.96,-5.84 -2.8,0 -4.7,1.91 -5.46,3.68l-0.26 5.08 -0.38 0c-3.81,-5.46 -10.41,-8.89 -17.26,-8.89 -12.56,0 -22.72,10.67 -22.72,23.74l0 19.68c0,13.2 10.03,23.74 22.72,23.74 6.85,0 13.59,-3.43 17.26,-8.76l0.26 0 0 10.16c0,9.27 -5.08,13.46 -14.6,13.46 -6.22,0 -11.3,-2.67 -14.35,-6.47 -2.41,-1.4 -4.95,-1.91 -7.11,0 -1.27,0.76 -2.16,2.28 -2.04,4.06 0.13,1.14 0.89,2.28 2.16,3.43 4.06,5.84 12.57,9.27 21.07,9.27zm0.38 -35.16c-8.25,0 -14.6,-6.86 -14.6,-15.62l0 -16c0,-8.63 6.35,-15.48 14.6,-15.48 8,0 14.47,7.11 14.47,15.87l0 15.23c0,8.89 -6.48,16 -14.47,16zm48.29 -68.81c3.68,0 6.98,-3.17 6.98,-6.72 0,-3.68 -3.3,-7.11 -6.98,-7.11 -4.06,0 -6.98,3.17 -6.98,7.11 0,3.68 3.05,6.72 6.98,6.72zm0 78.59c3.17,0 5.84,-2.67 5.84,-5.84l0 -55.22c0,-3.18 -2.67,-5.84 -5.84,-5.84 -3.3,0 -5.97,2.67 -5.97,5.84l0 55.22c0,3.17 2.67,5.84 5.97,5.84zm27.85 0.12c3.3,0 5.96,-2.67 5.96,-5.84l0 -33.77c0,-8 5.84,-16.13 13.84,-16.13 7.49,0 11.8,5.46 11.8,14.98l0 34.91c0,3.17 2.67,5.84 5.84,5.84 3.3,0 5.97,-2.67 5.97,-5.84l0 -38.21c0,-14.09 -7.24,-22.85 -18.92,-22.85 -8.5,0 -14.98,4.19 -18.28,10.03l-0.38 0 -0.25 -6.22c-0.76,-2.28 -3.05,-3.94 -5.59,-3.94 -3.3,0 -5.84,2.79 -5.84,5.97l0 55.22c0,3.17 2.67,5.84 5.84,5.84zm81.29 25.26c16.63,0 26.66,-9.39 26.66,-23.74l0 -62.58c0,-3.18 -2.66,-5.84 -5.96,-5.84 -2.79,0 -4.7,1.91 -5.46,3.68l-0.26 5.08 -0.38 0c-3.81,-5.46 -10.41,-8.89 -17.27,-8.89 -12.56,0 -22.72,10.67 -22.72,23.74l0 19.68c0,13.2 10.03,23.74 22.72,23.74 6.86,0 13.59,-3.43 17.27,-8.76l0.26 0 0 10.16c0,9.27 -5.08,13.46 -14.6,13.46 -6.22,0 -11.3,-2.67 -14.35,-6.47 -2.41,-1.4 -4.95,-1.91 -7.11,0 -1.27,0.76 -2.16,2.28 -2.03,4.06 0.13,1.14 0.89,2.28 2.16,3.43 4.06,5.84 12.57,9.27 21.07,9.27zm0.38 -35.16c-8.26,0 -14.6,-6.86 -14.6,-15.62l0 -16c0,-8.63 6.34,-15.48 14.6,-15.48 8,0 14.47,7.11 14.47,15.87l0 15.23c0,8.89 -6.48,16 -14.47,16zm94.85 9.9c3.17,0 5.83,-2.67 5.83,-5.84l0.13 -73.88 18.79 0c3.05,0 5.46,-2.41 5.46,-5.46 0,-3.05 -2.41,-5.46 -5.46,-5.46l-49.76 0c-3.05,0 -5.46,2.41 -5.46,5.46 0,3.05 2.41,5.46 5.46,5.46l19.04 0 0 73.88c0,3.17 2.66,5.84 5.97,5.84zm44.73 0c3.3,0 5.96,-2.67 5.96,-5.84l0 -33.77c0,-8 5.97,-16.13 14.09,-16.13 7.61,0 12.06,5.46 12.06,15.11l0 34.78c0,3.17 2.67,5.84 5.84,5.84 3.3,0 5.97,-2.67 5.97,-5.84l0 -37.96c0,-14.22 -7.37,-23.11 -19.17,-23.11 -8.63,0 -14.98,4.7 -18.41,10.8l-0.38 0 0 -30.47c0,-3.17 -2.66,-5.84 -5.96,-5.84 -3.17,0 -5.84,2.67 -5.84,5.84l0 80.74c0,3.17 2.67,5.84 5.84,5.84zm82.81 -0.12c9.91,0 19.55,-3.43 23.74,-11.94 1.15,-2.28 0,-4.82 -2.54,-5.97 -2.29,-1.65 -5.46,-0.25 -6.6,1.52 -3.81,5.33 -9.14,6.35 -14.47,6.35 -9.02,0 -14.6,-6.35 -14.6,-17.39l0 -3.43 35.29 0c3.43,0 5.46,-2.03 5.46,-5.46l0 -3.68c0,-16.63 -10.41,-26.91 -26.28,-27.04 -16.12,0 -26.4,11.68 -26.4,28.18l0 10.54c0,16.76 9.78,28.31 26.4,28.31zm-14.47 -39.87c0.26,-10.79 5.71,-17.01 14.47,-17.01 8.76,0 14.35,6.22 14.47,17.01l-28.94 0zm115.92 38.21c16.51,0 26.15,-8.89 26.15,-23.87 0,-10.41 -6.34,-19.04 -15.1,-22.09l0 -0.51c7.61,-2.92 12.44,-10.79 12.44,-19.68 0,-14.98 -9.65,-22.72 -25.77,-22.72l-22.98 0c-4.07,0 -6.35,2.28 -6.35,6.22l0 76.42c0,3.93 2.28,6.22 6.35,6.22l25.26 0zm-19.68 -77.56l16 0c9.91,0 15.62,4.44 15.62,13.07 0,8.89 -5.59,13.83 -15.62,13.83l-16 0 0 -26.91zm0 37.44l18.41 0c9.4,0 15.62,5.97 15.62,14.85 0,8.76 -5.97,13.96 -15.62,13.96l-18.41 0 0 -28.82zm81.42 41.77c9.91,0 19.55,-3.43 23.74,-11.94 1.15,-2.28 0,-4.82 -2.54,-5.97 -2.28,-1.65 -5.46,-0.25 -6.6,1.52 -3.81,5.33 -9.14,6.35 -14.47,6.35 -9.02,0 -14.6,-6.35 -14.6,-17.39l0 -3.43 35.3 0c3.43,0 5.46,-2.03 5.46,-5.46l0 -3.68c0,-16.63 -10.41,-26.91 -26.28,-27.04 -16.12,0 -26.4,11.68 -26.4,28.18l0 10.54c0,16.76 9.78,28.31 26.4,28.31zm-14.47 -39.87c0.26,-10.79 5.72,-17.01 14.47,-17.01 8.76,0 14.35,6.22 14.47,17.01l-28.94 0zm72.79 39.99c15.87,0 25.01,-7.74 25.01,-20.18 0,-8.51 -5.2,-14.98 -16.25,-17.26l-9.65 -2.16c-6.85,-1.52 -9.9,-4.31 -9.9,-9.14 0,-3.3 1.65,-5.46 4.57,-6.73 2.41,-1.14 6.09,-1.39 10.54,-0.76 5.58,0.51 10.03,2.16 12.19,5.2 2.16,0.51 3.94,-0.37 4.44,-2.28 1.14,-2.04 0.51,-4.57 -2.16,-6.48 -3.56,-4.57 -9.78,-7.24 -17.65,-7.24 -14.85,0 -23.87,7.62 -23.87,19.43 0,9.27 5.33,14.98 16.25,17.26l8.76 1.91c6.73,1.52 10.92,4.44 10.92,9.9 0,3.69 -2.03,5.84 -5.59,7.11 -2.79,1.02 -6.73,1.15 -11.55,0.26 -5.96,-0.63 -10.79,-2.29 -12.95,-5.59 -2.54,-1.27 -6.09,0.25 -6.09,3.93 0,2.29 1.39,4.57 3.81,6.22 4.06,4.31 10.66,6.6 19.17,6.6zm68.22 -5.33c0,-2.8 -2.16,-5.07 -4.82,-5.33 -6.85,-0.13 -10.28,-3.18 -10.28,-10.41l0 -33.39 9.27 0c2.92,0 5.33,-2.41 5.33,-5.46 0,-2.92 -2.41,-5.33 -5.33,-5.33l-9.27 0 0 -12.82c0,-3.17 -2.67,-5.84 -5.84,-5.84 -3.3,0 -5.97,2.67 -5.97,5.84l0 12.82 -5.07 0c-2.92,0 -5.33,2.41 -5.33,5.33 0,3.05 2.41,5.46 5.33,5.46l4.82 0 0 35.93c0,6.48 1.65,10.92 4.82,13.96 3.56,3.43 10.16,5.08 17.52,4.45 2.66,-0.26 4.82,-2.54 4.82,-5.21zm72.12 3.56c16.5,0 26.15,-8.89 26.15,-23.87 0,-10.41 -6.34,-19.04 -15.1,-22.09l0 -0.51c7.61,-2.92 12.44,-10.79 12.44,-19.68 0,-14.98 -9.65,-22.72 -25.78,-22.72l-22.98 0c-4.06,0 -6.35,2.28 -6.35,6.22l0 76.42c0,3.93 2.28,6.22 6.35,6.22l25.26 0zm-19.68 -77.56l16 0c9.91,0 15.61,4.44 15.61,13.07 0,8.89 -5.58,13.83 -15.61,13.83l-16 0 0 -26.91zm0 37.44l18.41 0c9.4,0 15.62,5.97 15.62,14.85 0,8.76 -5.97,13.96 -15.62,13.96l-18.41 0 0 -28.82zm63.91 41.89c3.17,0 5.83,-2.67 5.83,-5.84l0 -28.31c0,-9.91 6.98,-19.43 20.19,-21.71 2.54,-0.5 4.44,-2.79 4.44,-5.46 0,-3.17 -2.67,-5.84 -5.84,-5.71 -8,0.89 -14.22,5.46 -18.28,11.8l-0.51 0 0 -6.72c-0.63,-2.8 -3.04,-5.08 -5.96,-5.08 -3.18,0 -5.84,2.67 -5.84,5.97l0 55.22c0,3.17 2.67,5.84 5.97,5.84zm58.82 0.13c6.98,0 13.46,-3.3 17.26,-8.76l0.26 0 0.25 4.83c0.64,1.65 2.67,3.81 5.71,3.81 3.17,0 5.84,-2.67 5.84,-5.84l0 -55.22c0,-3.18 -2.67,-5.84 -5.84,-5.84 -2.92,0 -4.95,1.91 -5.71,3.68l-0.25 4.95 -0.38 0c-3.68,-5.46 -10.28,-8.76 -17.14,-8.76 -12.57,0 -22.72,10.67 -22.72,23.74l0 19.68c0,13.2 10.03,23.74 22.72,23.74zm3.05 -10.02c-8.25,0 -14.6,-6.86 -14.6,-15.62l0 -16c0,-8.63 6.35,-15.48 14.6,-15.48 8,0 14.47,7.11 14.47,15.87l0 15.23c0,8.89 -6.47,16 -14.47,16zm47.27 9.9c3.3,0 5.96,-2.67 5.96,-5.84l0 -33.77c0,-8 5.84,-16.13 13.84,-16.13 7.49,0 11.81,5.46 11.81,14.98l0 34.91c0,3.17 2.67,5.84 5.84,5.84 3.3,0 5.97,-2.67 5.97,-5.84l0 -38.21c0,-14.09 -7.24,-22.85 -18.92,-22.85 -8.5,0 -14.98,4.19 -18.28,10.03l-0.38 0 -0.25 -6.22c-0.76,-2.28 -3.05,-3.94 -5.59,-3.94 -3.3,0 -5.84,2.79 -5.84,5.97l0 55.22c0,3.17 2.67,5.84 5.84,5.84zm78.63 0.13c6.98,0 13.46,-3.3 17.26,-8.76l0.26 0 0.26 4.83c0.63,1.78 2.66,3.81 5.71,3.81 3.17,0 5.83,-2.67 5.83,-5.84l0 -80.74c0,-3.17 -2.66,-5.84 -5.96,-5.84 -3.18,0 -5.84,2.67 -5.84,5.84l0 28.19 -0.51 0c-3.68,-5.46 -10.28,-8.63 -17.01,-8.63 -12.57,0 -22.72,10.67 -22.72,23.74l0 19.68c0,13.2 10.03,23.74 22.72,23.74zm3.05 -10.02c-8.25,0 -14.6,-6.86 -14.6,-15.62l0 -16c0,-8.63 6.35,-15.48 14.6,-15.48 8,0 14.47,7.11 14.47,15.87l0 15.23c0,8.89 -6.48,16 -14.47,16z"/>
  <path class="fil3" d="M529.6 390.76l0 91.1 -184.73 101.61 -181.22 -98.68 -1.21 -215.28 178.3 -101.23 183.47 104.53 0 27.29 -251.39 158.07 49.19 37.28c14.63,8.61 24.54,6.52 36.24,0l171.35 -104.69zm-301.46 -74.48l0 78.2 162.58 -95.16c0,-6.35 0,-12.7 0,-19.1l-44.34 -37.78 -118.24 73.85z"/>
 </g>
</svg>
